<?xml version="1.0" encoding="UTF-8"?><svg id="Layer_1" xmlns="http://www.w3.org/2000/svg" viewBox="0 0 285.73 114.29"><defs><style>.cls-1{fill:#fff;}.cls-2{fill:#231f20;font-family:Verdana-Bold, Verdana;font-size:11.4px;letter-spacing:0em;}</style></defs><rect class="cls-1" width="285.73" height="114.29"/><rect x="45.15" y="26" width="195.65" height="51.75"/><g><path class="cls-1" d="M96.19,64.03c-.55,.14-1.13,.25-1.74,.33-.61,.08-1.36,.12-2.25,.12-1.98,0-3.46-.4-4.42-1.2-.97-.8-1.45-2.18-1.45-4.12v-7.43h-2.09v-3.45h2.09v-4.54h5.11v4.54h4.76v3.45h-4.76v5.65c0,.56,0,1.04,.01,1.46,.01,.42,.08,.79,.23,1.12,.13,.33,.36,.59,.7,.79,.33,.19,.82,.29,1.46,.29,.26,0,.61-.06,1.04-.17,.43-.11,.73-.22,.9-.31h.42v3.49Z"/><path class="cls-1" d="M114.89,57.16h-11.67c.08,1.25,.55,2.2,1.42,2.86,.87,.66,2.16,.99,3.86,.99,1.08,0,2.12-.19,3.13-.58,1.01-.39,1.81-.8,2.39-1.25h.57v4.09c-1.15,.46-2.24,.8-3.26,1-1.02,.21-2.15,.31-3.38,.31-3.19,0-5.64-.72-7.33-2.15-1.7-1.44-2.55-3.48-2.55-6.13s.8-4.7,2.41-6.24c1.61-1.53,3.82-2.3,6.62-2.3,2.59,0,4.53,.65,5.83,1.96,1.3,1.31,1.95,3.19,1.95,5.64v1.78Zm-5.07-2.99c-.03-1.07-.29-1.87-.79-2.41-.5-.54-1.28-.81-2.34-.81-.98,0-1.79,.25-2.42,.76-.63,.51-.99,1.33-1.06,2.45h6.61Z"/><path class="cls-1" d="M128.12,62.48c-.27,.21-.61,.46-1.02,.75-.4,.29-.79,.52-1.15,.69-.5,.23-1.02,.39-1.56,.5-.54,.11-1.13,.16-1.77,.16-1.51,0-2.78-.47-3.79-1.4-1.02-.93-1.53-2.13-1.53-3.58,0-1.16,.26-2.11,.78-2.85,.52-.74,1.26-1.32,2.21-1.74,.94-.42,2.12-.73,3.51-.91,1.4-.18,2.85-.31,4.35-.4v-.08c0-.88-.36-1.49-1.08-1.82-.72-.33-1.78-.5-3.17-.5-.84,0-1.74,.15-2.69,.45-.95,.3-1.64,.53-2.05,.69h-.47v-3.84c.54-.14,1.41-.31,2.63-.5,1.21-.19,2.43-.29,3.65-.29,2.9,0,4.99,.45,6.28,1.34,1.29,.89,1.93,2.29,1.93,4.2v10.82h-5.05v-1.69Zm0-2.47v-3.3c-.69,.06-1.44,.13-2.24,.23-.8,.1-1.41,.21-1.83,.35-.51,.16-.9,.39-1.17,.7-.27,.31-.4,.71-.4,1.21,0,.33,.03,.6,.08,.8,.06,.21,.2,.4,.43,.59,.22,.19,.48,.33,.78,.42,.3,.09,.77,.13,1.42,.13,.51,0,1.03-.1,1.55-.31,.52-.21,.98-.48,1.38-.82"/><path class="cls-1" d="M148.03,64.03c-.55,.14-1.13,.25-1.74,.33-.61,.08-1.36,.12-2.25,.12-1.98,0-3.46-.4-4.42-1.2-.97-.8-1.45-2.18-1.45-4.12v-7.43h-2.1v-3.45h2.1v-4.54h5.11v4.54h4.76v3.45h-4.76v5.65c0,.56,0,1.04,.01,1.46,0,.42,.08,.79,.23,1.12,.13,.33,.37,.59,.7,.79,.33,.19,.82,.29,1.46,.29,.26,0,.61-.06,1.04-.17,.43-.11,.73-.22,.9-.31h.42v3.49Z"/><path class="cls-1" d="M162.6,53.12h-.45c-.22-.08-.56-.13-1.05-.17-.48-.04-.88-.06-1.2-.06-.72,0-1.36,.05-1.92,.14-.56,.09-1.15,.26-1.79,.48v10.65h-5.11v-15.9h5.11v2.34c1.12-.96,2.1-1.6,2.92-1.92,.83-.32,1.59-.48,2.29-.48,.18,0,.38,0,.61,.02,.23,0,.42,.02,.59,.04v4.86Z"/><path class="cls-1" d="M181.74,56.22c0,2.61-.76,4.68-2.29,6.18-1.53,1.51-3.67,2.26-6.42,2.26s-4.9-.75-6.42-2.26c-1.52-1.5-2.29-3.57-2.29-6.18s.77-4.7,2.3-6.2c1.53-1.5,3.67-2.25,6.41-2.25s4.92,.75,6.44,2.26c1.52,1.51,2.27,3.57,2.27,6.19m-6.27,3.87c.33-.41,.58-.89,.74-1.47,.17-.57,.25-1.36,.25-2.37,0-.93-.08-1.72-.25-2.35s-.4-1.14-.71-1.51c-.3-.39-.66-.66-1.09-.82-.42-.16-.88-.24-1.37-.24s-.93,.07-1.31,.2c-.38,.13-.75,.4-1.1,.79-.31,.37-.56,.87-.74,1.51-.18,.64-.28,1.45-.28,2.42,0,.87,.08,1.62,.24,2.26,.16,.64,.4,1.15,.71,1.54,.3,.37,.66,.64,1.08,.81,.42,.17,.9,.25,1.44,.25,.46,0,.9-.08,1.32-.23,.42-.16,.78-.42,1.07-.79"/><polygon class="cls-1" points="201.72 47.27 192.18 64.17 186.12 64.17 196.03 47.12 185.2 47.12 185.2 43.08 201.72 43.08 201.72 47.27"/></g><text class="cls-2" transform="translate(45.18 94.03) scale(.85 1)"><tspan x="0" y="0">scuola di cucina • catering • eventi</tspan></text></svg>